<?xml version="1.0" encoding="utf-8" ?>
<svg xmlns="http://www.w3.org/2000/svg" xmlns:ev="http://www.w3.org/2001/xml-events" xmlns:xlink="http://www.w3.org/1999/xlink" baseProfile="full" height="199.77785cm" version="1.1" viewBox="0.0 -2.000000000000007 300.1839540328726 199.77785" width="300.1839540328726cm">
  <defs/>
  <path d="M 55.96970000000001,0.0 L 2.0,0.0 C 2.0725484773410066,9.049596459626898 8.903020932818439,11.379826076308307 11.922972485713245,17.23576513452517 L 55.96970000000001,8.617882567262585 L 55.96970000000001,0.0" fill="rgb(255,255,255)" stroke="rgb(51,51,51)" stroke-width="0.2"/>
  <path d="M 57.96970000000001,0.0 L 57.96970000000001,8.617882567262585 L 102.01642751428678,17.23576513452517 C 105.03637906718157,11.379826076308307 111.86685152265902,9.0495964596269 111.93940000000002,0.0 L 57.96970000000001,0.0" fill="rgb(255,255,255)" stroke="rgb(51,51,51)" stroke-width="0.2"/>
  <path d="M 144.3483375,91.71474 L 144.3483375,23.4837 Q 144.34831908781246,11.712393277095387 142.62018750000001,0.0 L 120.02118750000002,0.0 L 120.02118750000002,12.916034999999994 Q 120.02115131944149,32.297332896482885 113.93940000000002,32.29733 Q 115.9394218511306,50.07642410140748 115.93940000000002,91.71474 L 144.3483375,91.71474" fill="rgb(255,255,255)" stroke="rgb(51,51,51)" stroke-width="0.2"/>
  <path d="M 146.3483375,91.71474 L 174.757275,91.71474 Q 174.75725314886944,50.07642410140748 176.757275,32.29733 Q 170.67552368055854,32.297332896482885 170.6754875,12.916034999999994 L 170.6754875,0.0 L 148.0764875,0.0 Q 146.34835591218757,11.712393277095387 146.3483375,23.4837 L 146.3483375,91.71474" fill="rgb(255,255,255)" stroke="rgb(51,51,51)" stroke-width="0.2"/>
  <path d="M 178.757275,91.71474 L 226.151115,91.71474 L 226.151115,0.0 L 213.5439902747429,0.0 L 204.0579051517622,0.0 L 194.57182002878153,0.0 L 178.757275,0.0 L 178.757275,91.71474" fill="rgb(255,255,255)" stroke="rgb(51,51,51)" stroke-width="0.2"/>
  <path d="M 228.151115,44.419460475253935 L 236.62426513137365,44.419460475253935 L 237.78536513137365,31.66170814106905 L 238.94646513137366,44.419460475253935 L 250.20738669566288,44.419460475253935 L 253.072315,44.419460475253935 L 254.233415,30.18559383319394 L 241.15458375084376,28.351093833193946 L 254.233415,26.516593833193944 L 252.0794958022707,20.302829883953585 C 244.79089680211132,19.322817509232568 245.26866405187218,13.222442384113004 245.21970830147362,3.398139883953583 L 236.670875,0.0 A 9.004954132112875,9.004954132112875 0 0,1 228.151115,6.0889828593022415 L 228.151115,44.419460475253935" fill="rgb(255,255,255)" stroke="rgb(51,51,51)" stroke-width="0.2"/>
  <path d="M 282.31571500000007,44.419460475253935 L 282.31571500000007,6.0889828593022415 A 9.004954132112875,9.004954132112875 0 0,1 273.79595500000005,0.0 L 265.2471216985264,3.398139883953583 C 265.1981659481279,13.222442384113004 265.67593319788875,19.322817509232568 258.38733419772933,20.302829883953585 L 256.23341500000004,26.516593833193944 L 269.3122462491563,28.351093833193946 L 256.23341500000004,30.18559383319394 L 257.394515,44.419460475253935 L 271.52036486862636,44.419460475253935 L 272.6814648686264,31.66170814106905 L 273.84256486862637,44.419460475253935 L 282.31571500000007,44.419460475253935" fill="rgb(255,255,255)" stroke="rgb(51,51,51)" stroke-width="0.2"/>
  <path d="M 287.31571500000007,0.0 L 284.31571500000007,0.0 L 284.31571500000007,11.175450545108466 Q 288.65080510902175,3.9526351635325407 287.31571500000007,0.0" fill="rgb(255,255,255)" stroke="rgb(51,51,51)" stroke-width="0.2"/>
  <path d="M 289.63007283884536,0.0 Q 288.2949827298237,3.9526351635325407 292.63007283884536,11.175450545108466 L 292.63007283884536,0.0 L 289.63007283884536,0.0" fill="rgb(255,255,255)" stroke="rgb(51,51,51)" stroke-width="0.2"/>
  <path d="M 29.41185,195.77785 L 8.735297499999998,195.77785 Q 8.735319351130581,154.1395341014075 6.735297499999998,136.36044 Q 6.742959161484279,136.36041178237832 2.0,115.92237850000001 L 2.0,101.71474 L 8.837824933802679,101.71474 L 10.241480980177915,122.332671215663 L 11.645137026553147,101.71474 L 16.20368710699004,101.71474 L 17.60734315336527,120.26078845811762 L 19.010999199740503,101.71474 L 27.182524185500935,101.71474 Q 29.41184979463906,114.58544633605432 29.41185,127.54681000000001 L 29.41185,195.77785" fill="rgb(255,255,255)" stroke="rgb(51,51,51)" stroke-width="0.2"/>
  <path d="M 31.41185,195.77785 L 31.41185,127.54681000000001 Q 31.411850205360945,114.58544633605432 33.641175814499064,101.71474 L 41.8127008002595,101.71474 L 43.21635684663473,120.26078845811762 L 44.620012893009964,101.71474 L 49.17856297344686,101.71474 L 50.58221901982209,122.332671215663 L 51.98587506619732,101.71474 L 58.8237,101.71474 L 58.8237,115.92237850000001 Q 54.08074083851572,136.36041178237832 54.0884025,136.36044 Q 52.08838064886942,154.1395341014075 52.0884025,195.77785 L 31.41185,195.77785" fill="rgb(255,255,255)" stroke="rgb(51,51,51)" stroke-width="0.2"/>
  <path d="M 60.8237,193.42948 L 60.8237,101.71474 L 70.15816551831993,101.71474 L 75.26165611028947,101.71474 L 82.91690984823776,101.71474 L 90.5721635861861,101.71474 L 95.67565417815561,101.71474 L 105.01011969647556,101.71474 L 108.21754000000001,101.71474 L 108.21754000000001,193.42948 L 60.8237,193.42948" fill="rgb(255,255,255)" stroke="rgb(51,51,51)" stroke-width="0.2"/>
  <path d="M 110.21754000000001,140.09630914578267 L 110.21754000000001,107.80372285930224 A 9.004954132112875,9.004954132112875 0 0,0 118.7373,101.71474 L 127.44594000000001,105.17640342028575 C 127.36982700000002,114.95067842028575 126.81701850000002,121.01353292028575 134.05559000000002,122.08109342028575 L 134.05559000000002,128.23133414145542 L 133.34389833333336,142.4652008081221 Q 129.24940545972873,141.58879488276827 125.13425752475811,141.02020108691673 L 125.500321625403,130.22276457271684 L 123.36705306895728,140.8136948184525 Q 121.09947151511716,140.56555120777614 118.82730632837414,140.40324044094004 L 118.70447346152258,128.39982441510648 L 117.0517134978893,140.28954555166086 Q 113.63978634163563,140.09630911396815 110.21754000000001,140.09630914578267" fill="rgb(255,255,255)" stroke="rgb(51,51,51)" stroke-width="0.2"/>
  <path d="M 159.89364000000003,140.09630914578267 Q 156.4713936583644,140.09630911396815 153.05946650211075,140.28954555166086 L 151.40670653847747,128.39982441510648 L 151.2838736716259,140.40324044094004 Q 149.0117084848829,140.56555120777614 146.74412693104276,140.8136948184525 L 144.61085837459703,130.22276457271684 L 144.97692247524193,141.02020108691673 Q 140.86177454027128,141.58879488276827 136.7672816666667,142.4652008081221 L 136.05559000000002,128.23133414145542 L 136.05559000000002,122.08109342028575 C 143.29416150000003,121.01353292028575 142.74135300000003,114.95067842028575 142.66524,105.17640342028575 L 151.37388,101.71474 A 9.004954132112875,9.004954132112875 0 0,0 159.89364000000003,107.80372285930224 L 159.89364000000003,140.09630914578267" fill="rgb(255,255,255)" stroke="rgb(51,51,51)" stroke-width="0.2"/>
  <path d="M 173.0690905451085,104.71474 L 161.89364000000003,104.71474 L 161.89364000000003,101.71474 L 173.0690905451085,101.71474 L 173.0690905451085,104.71474" fill="rgb(255,255,255)" stroke="rgb(51,51,51)" stroke-width="0.2"/>
  <path d="M 175.0690905451085,104.71474 L 175.0690905451085,101.71474 L 186.24454109021698,101.71474 L 186.24454109021698,104.71474 L 175.0690905451085,104.71474" fill="rgb(255,255,255)" stroke="rgb(51,51,51)" stroke-width="0.2"/>
  <path d="M 242.214241090217,101.71474 L 242.214241090217,110.28405288089066 L 198.16751357593023,118.8533657617813 C 195.16890225452426,113.26150677701847 188.2368040046733,110.30477275032464 188.24454109021698,101.71474 L 242.214241090217,101.71474" fill="rgb(255,255,255)" stroke="rgb(51,51,51)" stroke-width="0.2"/>
  <path d="M 244.2142475615448,101.71474 L 298.1839475615448,101.71474 C 298.1916846470885,110.30477275032464 291.2595863972375,113.26150677701847 288.26097507583154,118.8533657617813 L 244.2142475615448,110.28405288089066 L 244.2142475615448,101.71474" fill="rgb(255,255,255)" stroke="rgb(51,51,51)" stroke-width="0.2"/>
</svg>
