<?xml version="1.0" encoding="utf-8" ?>
<svg xmlns="http://www.w3.org/2000/svg" xmlns:ev="http://www.w3.org/2001/xml-events" xmlns:xlink="http://www.w3.org/1999/xlink" baseProfile="full" height="122.93889852131596cm" version="1.1" viewBox="-31.545147159600248 -135.66787514188698 130.180588638401 122.93889852131596" width="130.180588638401cm">
  <defs/>
  <path d="M 29.545147159600248,-16.76774147324639 Q 29.522573648269745,-65.87785952777037 29.522573579800124,-82.24790147324639 Q 29.52257340422679,-92.54729755202318 27.094687505423032,-102.63555000000001 L 16.226815074883326,-102.63555000000001 L 14.874144329382759,-86.38161946543244 L 13.521473583882191,-102.63555000000001 L 6.282673579800122,-102.63555000000001 L 6.282673579800122,-91.42234331028551 Q 6.282665627133387,-74.04778994924061 0.4726985798001202,-74.04779147324638 Q 2.465970252646649,-56.91100138782237 2.4501249999999963,-16.76774147324639 L 29.545147159600248,-16.76774147324639" fill="rgb(227,175,186)" stroke="rgb(51,51,51)" stroke-width="0.2"/>
  <path d="M -29.545147159600248,-16.76774147324639 L -2.4501249999999963,-16.76774147324639 Q -2.465970252646649,-56.911001387822374 -0.4726985798001202,-74.04779147324638 Q -6.28266562713339,-74.04778994924061 -6.282673579800122,-91.42234331028551 L -6.282673579800122,-102.63555000000001 L -13.521473583882191,-102.63555000000001 L -14.874144329382759,-86.38161946543244 L -16.226815074883326,-102.63555000000001 L -27.094687505423032,-102.63555000000001 Q -29.52257340422679,-92.54729755202318 -29.522573579800124,-82.24790147324639 Q -29.522573648269745,-65.87785952777037 -29.545147159600248,-16.76774147324639" fill="rgb(227,175,186)" stroke="rgb(51,51,51)" stroke-width="0.2"/>
  <path d="M -24.0,-41.3555 L 25.00032999999999,-41.3555 L 24.99942231074656,-41.411259713913964 L 24.00032999999999,-102.7859 L 1.5528997535396911,-102.7859 L -23.0,-102.7859 L -23.99909231074657,-41.411259713913964 L -24.0,-41.3555" fill="rgb(227,175,186)" stroke="rgb(51,51,51)" stroke-width="0.2"/>
  <path d="M 0.0,-96.05756680680076 L 21.78162688837434,-96.05756680680076 L 23.824646990209132,-96.05756680680076 L 23.824646990209132,-111.7504203310217 C 16.121738870413807,-112.71690315402194 16.569144225531137,-119.16084910691345 16.425800000000002,-129.53081667888884 L 6.93532424691455,-133.6678749614911 A 25.269608721062983,25.269608721062983 0.0 0,1 0.0,-97.05756669738166 L 0.0,-96.05756680680076" fill="rgb(227,175,186)" stroke="rgb(51,51,51)" stroke-width="0.2"/>
  <path d="M 0.0,-96.05756680680076 L 0.0,-97.05756669738166 A 25.269608721062983,25.269608721062983 0.0 0,1 -6.935324246914551,-133.6678749614911 L -16.425800000000002,-129.53081667888884 C -16.569144225531137,-119.16084910691345 -16.121738870413804,-112.71690315402194 -23.824646990209132,-111.7504203310217 L -23.824646990209132,-96.05756680680076 L 0.0,-96.05756680680076" fill="rgb(227,175,186)" stroke="rgb(51,51,51)" stroke-width="0.2"/>
  <path d="M 96.63544147880074,-14.728976620571018 L 70.20997195039644,-14.728976620571018 Q 70.22581720304309,-54.872236535147 68.23254553019657,-72.009026620571 Q 71.22492069379419,-72.00902675418382 71.22491789900062,-90.30102264131406 L 71.22491789900062,-102.63555000000001 L 77.31619283709995,-102.63555000000001 L 78.851076348009,-84.76019535933456 L 80.38595985891804,-102.63555000000001 L 84.4468099234746,-102.63555000000001 L 85.98169343438366,-86.56164844952224 L 87.5165769452927,-102.63555000000001 L 93.94219321718582,-102.63555000000001 Q 96.61286770586995,-91.5384723072255 96.61286789900062,-80.20913662057102 Q 96.61286796747024,-63.839094675095 96.63544147880074,-14.728976620571018" fill="rgb(227,175,186)" stroke="rgb(51,51,51)" stroke-width="0.2"/>
  <path d="M 39.54514715960025,-14.728976620571018 Q 39.567720670930754,-63.839094675095 39.56772073940037,-80.20913662057102 Q 39.56772093253104,-91.5384723072255 42.23839542121517,-102.63555000000001 L 48.66401169310829,-102.63555000000001 L 50.19889520401734,-86.56164844952224 L 51.73377871492639,-102.63555000000001 L 55.79462877948295,-102.63555000000001 L 57.329512290391996,-84.76019535933456 L 58.86439580130104,-102.63555000000001 L 64.95567073940038,-102.63555000000001 L 64.95567073940038,-90.30102264131406 Q 64.9556679446068,-72.00902675418382 67.94804310820442,-72.009026620571 Q 65.9547714353579,-54.872236535146996 65.97061668800455,-14.728976620571018 L 39.54514715960025,-14.728976620571018" fill="rgb(227,175,186)" stroke="rgb(51,51,51)" stroke-width="0.2"/>
  <path d="M 44.090294319200495,-41.3555 L 44.09120200845393,-41.411259713913964 L 45.090294319200495,-102.7859 L 67.53772456566081,-102.7859 L 89.9851548121211,-102.7859 L 92.09062431920049,-102.7859 L 93.08971662994705,-41.411259713913964 L 93.09062431920049,-41.3555 L 44.090294319200495,-41.3555" fill="rgb(227,175,186)" stroke="rgb(51,51,51)" stroke-width="0.2"/>
  <path d="M 68.0902943192005,-96.07621167661719 L 68.0902943192005,-127.38528796043724 A 6.969232704077673,6.969232704077673 0.0 0,0 75.02561856611504,-133.66787514188698 L 84.5160943192005,-129.53081631689577 C 83.42095273640585,-119.65624306825069 82.23045589629305,-113.5838428578569 89.43796969275807,-111.75041996902863 L 89.43796969275807,-96.07621167661719 L 68.0902943192005,-96.07621167661719" fill="rgb(227,175,186)" stroke="rgb(51,51,51)" stroke-width="0.2"/>
  <path d="M 68.0902943192005,-96.07621167661719 L 46.74261894564292,-96.07621167661719 L 46.74261894564292,-111.75041996902863 C 53.95013274210793,-113.5838428578569 52.75963590199514,-119.65624306825069 51.66449431920049,-129.53081631689577 L 61.15497007228595,-133.66787514188698 A 6.969232704077673,6.969232704077673 0.0 0,0 68.0902943192005,-127.38528796043724 L 68.0902943192005,-96.07621167661719" fill="rgb(227,175,186)" stroke="rgb(51,51,51)" stroke-width="0.2"/>
</svg>
