<?xml version="1.0" encoding="utf-8" ?>
<svg xmlns="http://www.w3.org/2000/svg" xmlns:ev="http://www.w3.org/2001/xml-events" xmlns:xlink="http://www.w3.org/1999/xlink" baseProfile="full" height="129.69786037741142cm" version="1.1" viewBox="-28.082300000000004 -143.7159709511197 122.30198554687502 129.69786037741142" width="122.30198554687502cm">
  <defs/>
  <path d="M -25.725535546875,-17.018110573708285 L -1.7415430289432905,-17.018110573708285 L -0.7415430289432905,-29.55505076990579 L 0.2584569710567095,-17.018110573708285 L 24.242449999999998,-17.018110573708285 Q 24.242191407584514,-17.034436075376163 24.24193291697427,-17.050757291824127 Q 23.58560685953367,-58.4914875137498 23.585607226562495,-72.30590885495829 Q 23.585588813245614,-84.07721560271712 21.857457226562495,-95.78960885495829 L 7.609638607065882,-95.78960885495829 L -0.8302515299691002,-95.78960885495829 L -9.270141667004083,-95.78960885495829 L -23.3405427734375,-95.78960885495829 Q -25.06867436124916,-84.07721557700478 -25.0686927734375,-72.30590885495829 Q -25.068692406970044,-58.51085800876634 -25.723179161076906,-17.16691887911722 Q -25.724356295401442,-17.092559284281165 -25.725535546875,-17.018110573708285" fill="rgb(227,175,186)" stroke="rgb(51,51,51)" stroke-width="0.2"/>
  <path d="M 0.0,-97.85775552378857 L 8.473150131373654,-97.85775552378857 L 9.634250131373655,-110.61550785797345 L 10.795350131373658,-97.85775552378857 L 24.921200000000002,-97.85775552378857 L 26.082300000000004,-112.09162216584855 L 13.003468750843743,-113.92612216584855 L 26.082300000000004,-115.76062216584856 L 24.477735899659063,-120.38957137223237 C 16.524580743234697,-121.49427240708349 17.075263672660647,-128.152495200183 17.068593320662238,-138.87907605973237 L 10.859741796874998,-141.34707906722616 A 11.199884177735877,11.199884177735877 0.0 0,1 0.0,-127.40795891938748 L 0.0,-97.85775552378857" fill="rgb(227,175,186)" stroke="rgb(51,51,51)" stroke-width="0.2"/>
  <path d="M 0.0,-97.85775552378857 L 0.0,-127.40795891938748 A 11.199884177735877,11.199884177735877 0.0 0,1 -10.859741796874998,-141.34707906722616 L -17.068593320662238,-138.87907605973237 C -17.07526367266065,-128.152495200183 -16.524580743234697,-121.49427240708349 -24.477735899659063,-120.38957137223237 L -26.082300000000004,-115.76062216584856 L -13.003468750843743,-113.92612216584855 L -26.082300000000004,-112.09162216584855 L -24.921200000000002,-97.85775552378857 L -10.795350131373658,-97.85775552378857 L -9.634250131373655,-110.61550785797345 L -8.473150131373654,-97.85775552378857 L 0.0,-97.85775552378857" fill="rgb(227,175,186)" stroke="rgb(51,51,51)" stroke-width="0.2"/>
  <path d="M 64.807835546875,-104.26453884846745 L 64.807835546875,-135.4231471538978 A 12.516926288896189,12.516926288896189 0.0 0,0 75.66757734375,-141.7159709511197 L 82.03623554687499,-139.18444457950858 C 81.643159609375,-128.6177622357586 80.85262890625,-122.0794633295086 88.645885546875,-120.69493989200859 L 88.645885546875,-116.12951385279467 L 87.93419388020833,-101.89564718612802 Q 83.83970100660325,-102.77205311148185 79.72455307163247,-103.3406469073334 L 80.09061717227733,-114.13808342153328 L 77.95734861583162,-103.54715317579763 Q 75.6897670619915,-103.795296786474 73.41760187524858,-103.95760755331008 L 73.29476900839697,-115.96102357914366 L 71.64200904476374,-104.07130244258926 Q 68.23008188851024,-104.26453888028198 64.807835546875,-104.26453884846745" fill="rgb(227,175,186)" stroke="rgb(51,51,51)" stroke-width="0.2"/>
  <path d="M 64.807835546875,-104.26453884846745 Q 61.385589205239754,-104.26453888028198 57.973662048986256,-104.07130244258926 L 56.320902085353026,-115.96102357914366 L 56.198069218501416,-103.95760755331008 Q 53.925904031758485,-103.795296786474 51.65832247791837,-103.54715317579763 L 49.525053921472654,-114.13808342153328 L 49.89111802211753,-103.3406469073334 Q 45.775970087146746,-102.77205311148185 41.68147721354167,-101.89564718612802 L 40.969785546875,-116.12951385279467 L 40.969785546875,-120.69493989200859 C 48.7630421875,-122.0794633295086 47.972511484375,-128.6177622357586 47.579435546875,-139.18444457950858 L 53.94809375,-141.7159709511197 A 12.516926288896189,12.516926288896189 0.0 0,0 64.807835546875,-135.4231471538978 L 64.807835546875,-104.26453884846745" fill="rgb(227,175,186)" stroke="rgb(51,51,51)" stroke-width="0.2"/>
  <path d="M 36.0823,-16.018110573708285 Q 36.083479251473555,-16.092559284281165 36.08465638579809,-16.16691887911722 Q 36.739143139904954,-57.51085800876634 36.73914277343749,-71.30590885495829 Q 36.73914296946384,-83.67811962220419 38.86713559636843,-95.9637938549583 L 47.038660850723474,-95.9637938549583 L 48.46765014499074,-76.99574833872025 L 49.89663943925801,-95.9637938549583 L 54.45518937879605,-95.9637938549583 L 55.88417867306332,-74.87682717395438 L 57.313167967330585,-95.9637938549583 L 64.23970152996908,-95.9637938549583 L 70.98881793836657,-95.9637938549583 L 72.41780723263383,-74.87682717395438 L 73.8467965269011,-95.9637938549583 L 78.4053464060596,-95.9637938549583 L 79.83433570032687,-76.99574833872025 L 81.26332499459414,-95.9637938549583 L 89.43484995050656,-95.9637938549583 Q 91.56284257552494,-83.67811967943047 91.5628427734375,-71.30590885495829 Q 91.56284240640868,-57.4914875137498 92.21916846384929,-16.050757291824127 Q 92.21942695445952,-16.034436075376163 92.21968554687501,-16.018110573708285 L 65.1509924980342,-16.018110573708285 L 64.1509924980342,-22.335173463265164 L 63.1509924980342,-16.018110573708285 L 36.0823,-16.018110573708285" fill="rgb(227,175,186)" stroke="rgb(51,51,51)" stroke-width="0.2"/>
</svg>
